<svg width="29" height="29" viewBox="0 0 29 29" fill="none" xmlns="http://www.w3.org/2000/svg">
<g id="ant-design:github-filled">
<path id="Vector" d="M14.4887 2.16089C7.48506 2.15806 1.8125 7.82779 1.8125 14.8257C1.8125 20.3595 5.36103 25.0635 10.3029 26.7911C10.9685 26.9582 10.8665 26.4852 10.8665 26.1624V23.9675C7.02344 24.4178 6.86768 21.8747 6.60996 21.4499C6.08887 20.5606 4.85693 20.334 5.2251 19.9092C6.10019 19.459 6.99228 20.0225 8.02598 21.549C8.77363 22.6563 10.2321 22.4694 10.9713 22.2853C11.1327 21.6198 11.4782 21.0251 11.954 20.5634C7.97217 19.8498 6.3126 17.4199 6.3126 14.5312C6.3126 13.1294 6.77422 11.8408 7.68047 10.8014C7.10273 9.08804 7.73428 7.62105 7.81924 7.40298C9.46465 7.25572 11.1752 8.58111 11.3083 8.6859C12.2429 8.43384 13.3105 8.30074 14.5057 8.30074C15.7064 8.30074 16.777 8.43951 17.72 8.69439C18.04 8.45084 19.626 7.31236 21.1553 7.45113C21.2374 7.6692 21.8548 9.1022 21.311 10.7929C22.2286 11.8351 22.6959 13.135 22.6959 14.5397C22.6959 17.434 21.025 19.8668 17.0318 20.5691C17.3739 20.9055 17.6454 21.3066 17.8307 21.7491C18.016 22.1916 18.1112 22.6666 18.1108 23.1463V26.3323C18.1335 26.5872 18.1108 26.8392 18.5356 26.8392C23.5512 25.1485 27.162 20.4105 27.162 14.8286C27.162 7.82779 21.4866 2.16089 14.4887 2.16089Z" fill="white"/>
</g>
</svg>
