<svg width="30" height="29" viewBox="0 0 30 29" fill="none" xmlns="http://www.w3.org/2000/svg">
<g id="entypo-social:linkedin-with-circle" clip-path="url(#clip0_1_371)">
<path id="Vector" d="M15.0001 0.580078C7.0471 0.580078 0.600098 6.81221 0.600098 14.5001C0.600098 22.1881 7.0471 28.4202 15.0001 28.4202C22.9531 28.4202 29.4001 22.1881 29.4001 14.5001C29.4001 6.81221 22.9531 0.580078 15.0001 0.580078ZM11.4751 20.2697H8.5591V11.1985H11.4751V20.2697ZM9.9991 10.0849C9.0781 10.0849 8.4826 9.45412 8.4826 8.67402C8.4826 7.87796 9.0961 7.26606 10.0366 7.26606C10.9771 7.26606 11.5531 7.87796 11.5711 8.67402C11.5711 9.45412 10.9771 10.0849 9.9991 10.0849ZM22.1251 20.2697H19.2091V15.2425C19.2091 14.0724 18.7861 13.2778 17.7316 13.2778C16.9261 13.2778 16.4476 13.8157 16.2361 14.3334C16.1581 14.5175 16.1386 14.7785 16.1386 15.0381V20.2683H13.2211V14.0912C13.2211 12.9588 13.1836 12.0119 13.1446 11.197H15.6781L15.8116 12.4571H15.8701C16.2541 11.8655 17.1946 10.9926 18.7681 10.9926C20.6866 10.9926 22.1251 12.2352 22.1251 14.9061V20.2697Z" fill="white"/>
</g>
<defs>
<clipPath id="clip0_1_371">
<rect width="30" height="29" fill="white"/>
</clipPath>
</defs>
</svg>
